<?xml version="1.0" encoding="UTF-8" standalone="no"?>
<!-- Generator: Adobe Illustrator 19.2.1, SVG Export Plug-In . SVG Version: 6.00 Build 0)  -->

<svg
   xmlns:dc="http://purl.org/dc/elements/1.1/"
   xmlns:cc="http://creativecommons.org/ns#"
   xmlns:rdf="http://www.w3.org/1999/02/22-rdf-syntax-ns#"
   xmlns:svg="http://www.w3.org/2000/svg"
   xmlns="http://www.w3.org/2000/svg"
   xmlns:sodipodi="http://sodipodi.sourceforge.net/DTD/sodipodi-0.dtd"
   xmlns:inkscape="http://www.inkscape.org/namespaces/inkscape"
   version="1.1"
   id="Calque_1"
   x="0px"
   y="0px"
   viewBox="0 0 392.29999 118.5"
   xml:space="preserve"
   inkscape:version="0.91 r13725"
   sodipodi:docname="xsimd.svg"
   width="392.29999"
   height="118.5"><metadata
     id="metadata15"><rdf:RDF><cc:Work
         rdf:about=""><dc:format>image/svg+xml</dc:format><dc:type
           rdf:resource="http://purl.org/dc/dcmitype/StillImage" /><dc:title /></cc:Work></rdf:RDF></metadata><defs
     id="defs13" /><sodipodi:namedview
     pagecolor="#ffffff"
     bordercolor="#666666"
     borderopacity="1"
     objecttolerance="10"
     gridtolerance="10"
     guidetolerance="10"
     inkscape:pageopacity="0"
     inkscape:pageshadow="2"
     inkscape:window-width="1847"
     inkscape:window-height="1056"
     id="namedview11"
     showgrid="false"
     fit-margin-top="0"
     fit-margin-left="0"
     fit-margin-right="0"
     fit-margin-bottom="0"
     inkscape:zoom="1.3350176"
     inkscape:cx="303.18541"
     inkscape:cy="144.39522"
     inkscape:window-x="73"
     inkscape:window-y="24"
     inkscape:window-maximized="1"
     inkscape:current-layer="g5" /><style
     type="text/css"
     id="style3">
	.st0{fill:#3FB4C5;}
	.st1{fill:#C5E4ED;}
</style><g
     id="g5"
     transform="translate(0,-184.6)"><path
       style="fill:#3fb4c5"
       d="M 392.30078 0 C 390.40078 0.2 388.7 0.5992187 387 1.1992188 L 387 46.599609 C 382.7 39.599609 375.30078 36.199219 364.30078 36.199219 C 344.20078 36.199219 336.30078 47.500781 336.30078 71.300781 C 336.30078 95.100781 344.20078 106.30078 364.30078 106.30078 C 375.30078 106.30078 382.6 102.90039 387 95.900391 L 387 104.90039 C 388.7 105.40039 390.40078 105.8 392.30078 106 L 392.30078 0 z M 10.900391 12.800781 C 11.400391 12.900781 11.799609 12.999219 12.099609 13.199219 C 17.699609 14.999219 22.300391 17.700391 22.400391 17.900391 C 26.900391 20.900391 30.600391 24.800391 33.400391 29.400391 C 34.299737 30.799374 45.088209 46.979883 52.787109 58.578125 C 60.445816 47.013524 71.244484 30.732884 72.199219 29.300781 C 74.999219 24.700781 78.699219 20.800781 83.199219 17.800781 C 83.299219 17.600781 87.9 14.899609 93.5 13.099609 L 94.699219 12.800781 L 10.900391 12.800781 z M 0 17.699219 L 0 113.59961 C 4.1 113.09961 7.2 112.6 9 112 C 13.5 110.6 17 108.30078 17 108.30078 C 20.4 106.20078 23.000391 103.49961 24.900391 100.59961 C 25.900391 99.099608 39.900781 78.099609 47.800781 66.099609 C 47.877464 65.983423 48.004642 65.792051 48.083984 65.671875 C 47.98939 65.49236 47.895376 65.388408 47.800781 65.199219 C 39.900781 53.199219 25.900391 32.199219 24.900391 30.699219 C 22.900391 27.799219 20.3 25.1 17 23 C 17 23 13.5 20.700781 9 19.300781 C 7.2 18.700781 4.1 18.199219 0 17.699219 z M 105.80078 17.699219 C 101.70078 18.199219 98.600781 18.700781 96.800781 19.300781 C 92.100781 20.700781 88.699219 23 88.699219 23 C 85.399219 25.1 82.800781 27.799219 80.800781 30.699219 C 79.800781 32.199219 65.800391 53.199219 57.900391 65.199219 C 57.823712 65.315398 57.696525 65.506784 57.617188 65.626953 C 57.711419 65.80486 57.806159 65.905768 57.900391 66 C 65.800391 78 79.800781 99 80.800781 100.5 C 82.800781 103.4 85.299219 106.09922 88.699219 108.19922 C 88.699219 108.19922 92.199219 110.50039 96.699219 111.90039 C 98.499219 112.50039 101.59922 113 105.69922 113.5 L 105.69922 118.40039 L 94.800781 118.40039 L 93.599609 118.09961 C 87.999609 116.29961 83.400781 113.60039 83.300781 113.40039 C 78.800781 110.40039 75.100781 106.50039 72.300781 101.90039 C 71.401393 100.50134 60.613034 84.317105 52.914062 72.71875 C 45.254754 84.284008 34.454794 100.56781 33.5 102 C 30.7 106.6 27 110.5 22.5 113.5 C 22.4 113.7 17.799219 116.39922 12.199219 118.19922 L 11 118.5 L 105.80078 118.5 L 105.80078 17.699219 z M 195 22.400391 L 195 27.900391 L 200.30078 27.900391 L 200.30078 22.400391 L 195 22.400391 z M 248.80078 36 C 228.90078 36 226.19922 52.700781 226.19922 67.300781 L 226.19922 102.59961 C 227.79922 103.99961 229.69961 105.09961 231.59961 106.09961 L 231.59961 69.099609 C 231.59961 52.599609 233.99922 41 249.69922 41 L 251.09961 41 C 266.69961 41 269.19922 52.599609 269.19922 69.099609 L 269.19922 102.30078 L 274.69922 102.09961 L 274.69922 69.099609 C 274.69922 52.599609 277.10078 41 292.80078 41 L 294.19922 41 C 309.79922 41 312.30078 52.599609 312.30078 69.099609 L 312.30078 106.30078 C 314.20078 105.30078 316.09922 104.20078 317.69922 102.80078 L 317.69922 67.5 C 317.59922 52.7 314.7 36 295 36 L 292 36 C 280.5 36 274.70039 41.599219 271.90039 49.199219 C 269.00039 41.599219 263.30078 36 251.80078 36 L 248.80078 36 z M 146.90039 36.199219 C 136.20039 36.199219 126.19922 41.099219 126.19922 53.699219 C 126.19922 66.299219 135.20078 70.1 145.80078 73 C 155.90078 75.7 164.19922 77.8 164.19922 87 C 164.19922 98.1 156.20039 101.59961 147.40039 101.59961 C 141.50039 101.59961 135.69922 100.39922 130.69922 98.199219 L 128.40039 102.59961 C 134.10039 105.19961 140.69922 106.30078 147.69922 106.30078 C 159.29922 106.30078 169.40039 101.2 169.40039 87 C 169.40039 74.2 159.60039 71.299219 147.90039 68.199219 C 137.40039 65.299219 131.19922 62.600391 131.19922 53.900391 C 131.19922 43.900391 138.1 41 147 41 C 152.8 41 158.40078 41.900391 163.30078 44.400391 L 165.30078 39.900391 C 159.40078 36.900391 153.10039 36.199219 146.90039 36.199219 z M 195 37.300781 L 195 106.30078 L 200.30078 103.5 L 200.30078 37.300781 L 195 37.300781 z M 364.30078 40.900391 C 383.20078 40.900391 387 52.999219 387 71.199219 C 387 89.499219 383.20078 101.5 364.30078 101.5 C 345.40078 101.5 341.59961 89.399219 341.59961 71.199219 C 341.59961 52.999219 345.40078 40.900391 364.30078 40.900391 z "
       transform="translate(0,184.6)"
       id="path7-6" /><path
       class="st1"
       d="m 57.6,250.3 c -1.3,1.9 -2.9,4.4 -4.7,7.1 7.7,11.6 18.5,27.8 19.4,29.2 2.8,4.6 6.5,8.5 11,11.5 0.1,0.2 4.7,2.9 10.299999,4.7 0.400001,0.1 0.8,0.2 1.2,0.3 l 10.900001,0 0,-4.9 c -4.1,-0.5 -7.2,-1 -9,-1.6 -4.5,-1.4 -8.000001,-3.7 -8.000001,-3.7 C 85.3,290.8 82.8,288.1 80.8,285.2 c -1,-1.5 -15,-22.5 -22.9,-34.5 l 0,0 c -0.1,-0.1 -0.2,-0.2 -0.3,-0.4 m -46.7,-52.8 -10.9,0 0,4.9 c 4.1,0.5 7.2,1 9,1.6 4.5,1.4 8,3.7 8,3.7 3.3,2.1 5.9,4.8 7.9,7.7 1,1.5 15,22.5 22.9,34.5 l 0,0 c 0.1,0.2 0.2,0.3 0.3,0.5 1.3,-1.9 2.9,-4.4 4.7,-7.1 -7.7,-11.6 -18.5,-27.8 -19.4,-29.2 -2.8,-4.6 -6.5,-8.5 -11,-11.5 -0.1,-0.2 -4.7,-2.9 -10.3,-4.7 -0.3,-0.2 -0.7,-0.3 -1.2,-0.4"
       id="path9-3"
       inkscape:connector-curvature="0"
       style="fill:#3fb4c5;fill-opacity:0.27843139" /></g></svg>